<?xml version="1.0" encoding="UTF-8" standalone="no"?>
<svg>
<metadata>built for 'DuxCBfr1252' braille table on Sun Dec 07 11:53:12 CET 2014</metadata>
<defs>
<font horiz-adv-x="622" id="Braille-DuxCBfr1252" vert-adv-y="">
<font-face ascent="610" descent="-233" font-family="Braille" font-stretch="normal" font-weight="normal" units-per-em="1024"/>
<missing-glyph/>
<glyph d="M 72 538 m -18, 0 a 18,18 0 1,1 36,0 a 18,18 0 1,1 -36,0 z M 72 305 m -18, 0 a 18,18 0 1,1 36,0 a 18,18 0 1,1 -36,0 z M 72 72 m -18, 0 a 18,18 0 1,1 36,0 a 18,18 0 1,1 -36,0 z M 305 538 m -18, 0 a 18,18 0 1,1 36,0 a 18,18 0 1,1 -36,0 z M 305 305 m -18, 0 a 18,18 0 1,1 36,0 a 18,18 0 1,1 -36,0 z M 305 72 m -18, 0 a 18,18 0 1,1 36,0 a 18,18 0 1,1 -36,0 z " horiz-adv-x="622" unicode=" "/>
<glyph d="M 72 538 m -72, 0 a 72,72 0 1,1 144,0 a 72,72 0 1,1 -144,0 z M 72 305 m -18, 0 a 18,18 0 1,1 36,0 a 18,18 0 1,1 -36,0 z M 72 72 m -18, 0 a 18,18 0 1,1 36,0 a 18,18 0 1,1 -36,0 z M 305 538 m -18, 0 a 18,18 0 1,1 36,0 a 18,18 0 1,1 -36,0 z M 305 305 m -18, 0 a 18,18 0 1,1 36,0 a 18,18 0 1,1 -36,0 z M 305 72 m -18, 0 a 18,18 0 1,1 36,0 a 18,18 0 1,1 -36,0 z " horiz-adv-x="622" unicode="a"/>
<glyph d="M 72 538 m -18, 0 a 18,18 0 1,1 36,0 a 18,18 0 1,1 -36,0 z M 72 305 m -72, 0 a 72,72 0 1,1 144,0 a 72,72 0 1,1 -144,0 z M 72 72 m -18, 0 a 18,18 0 1,1 36,0 a 18,18 0 1,1 -36,0 z M 305 538 m -18, 0 a 18,18 0 1,1 36,0 a 18,18 0 1,1 -36,0 z M 305 305 m -18, 0 a 18,18 0 1,1 36,0 a 18,18 0 1,1 -36,0 z M 305 72 m -18, 0 a 18,18 0 1,1 36,0 a 18,18 0 1,1 -36,0 z " horiz-adv-x="622" unicode=","/>
<glyph d="M 72 538 m -72, 0 a 72,72 0 1,1 144,0 a 72,72 0 1,1 -144,0 z M 72 305 m -72, 0 a 72,72 0 1,1 144,0 a 72,72 0 1,1 -144,0 z M 72 72 m -18, 0 a 18,18 0 1,1 36,0 a 18,18 0 1,1 -36,0 z M 305 538 m -18, 0 a 18,18 0 1,1 36,0 a 18,18 0 1,1 -36,0 z M 305 305 m -18, 0 a 18,18 0 1,1 36,0 a 18,18 0 1,1 -36,0 z M 305 72 m -18, 0 a 18,18 0 1,1 36,0 a 18,18 0 1,1 -36,0 z " horiz-adv-x="622" unicode="b"/>
<glyph d="M 72 538 m -18, 0 a 18,18 0 1,1 36,0 a 18,18 0 1,1 -36,0 z M 72 305 m -18, 0 a 18,18 0 1,1 36,0 a 18,18 0 1,1 -36,0 z M 72 72 m -72, 0 a 72,72 0 1,1 144,0 a 72,72 0 1,1 -144,0 z M 305 538 m -18, 0 a 18,18 0 1,1 36,0 a 18,18 0 1,1 -36,0 z M 305 305 m -18, 0 a 18,18 0 1,1 36,0 a 18,18 0 1,1 -36,0 z M 305 72 m -18, 0 a 18,18 0 1,1 36,0 a 18,18 0 1,1 -36,0 z " horiz-adv-x="622" unicode="."/>
<glyph d="M 72 538 m -72, 0 a 72,72 0 1,1 144,0 a 72,72 0 1,1 -144,0 z M 72 305 m -18, 0 a 18,18 0 1,1 36,0 a 18,18 0 1,1 -36,0 z M 72 72 m -72, 0 a 72,72 0 1,1 144,0 a 72,72 0 1,1 -144,0 z M 305 538 m -18, 0 a 18,18 0 1,1 36,0 a 18,18 0 1,1 -36,0 z M 305 305 m -18, 0 a 18,18 0 1,1 36,0 a 18,18 0 1,1 -36,0 z M 305 72 m -18, 0 a 18,18 0 1,1 36,0 a 18,18 0 1,1 -36,0 z " horiz-adv-x="622" unicode="k"/>
<glyph d="M 72 538 m -18, 0 a 18,18 0 1,1 36,0 a 18,18 0 1,1 -36,0 z M 72 305 m -72, 0 a 72,72 0 1,1 144,0 a 72,72 0 1,1 -144,0 z M 72 72 m -72, 0 a 72,72 0 1,1 144,0 a 72,72 0 1,1 -144,0 z M 305 538 m -18, 0 a 18,18 0 1,1 36,0 a 18,18 0 1,1 -36,0 z M 305 305 m -18, 0 a 18,18 0 1,1 36,0 a 18,18 0 1,1 -36,0 z M 305 72 m -18, 0 a 18,18 0 1,1 36,0 a 18,18 0 1,1 -36,0 z " horiz-adv-x="622" unicode=";"/>
<glyph d="M 72 538 m -72, 0 a 72,72 0 1,1 144,0 a 72,72 0 1,1 -144,0 z M 72 305 m -72, 0 a 72,72 0 1,1 144,0 a 72,72 0 1,1 -144,0 z M 72 72 m -72, 0 a 72,72 0 1,1 144,0 a 72,72 0 1,1 -144,0 z M 305 538 m -18, 0 a 18,18 0 1,1 36,0 a 18,18 0 1,1 -36,0 z M 305 305 m -18, 0 a 18,18 0 1,1 36,0 a 18,18 0 1,1 -36,0 z M 305 72 m -18, 0 a 18,18 0 1,1 36,0 a 18,18 0 1,1 -36,0 z " horiz-adv-x="622" unicode="l"/>
<glyph d="M 72 538 m -18, 0 a 18,18 0 1,1 36,0 a 18,18 0 1,1 -36,0 z M 72 305 m -18, 0 a 18,18 0 1,1 36,0 a 18,18 0 1,1 -36,0 z M 72 72 m -18, 0 a 18,18 0 1,1 36,0 a 18,18 0 1,1 -36,0 z M 305 538 m -72, 0 a 72,72 0 1,1 144,0 a 72,72 0 1,1 -144,0 z M 305 305 m -18, 0 a 18,18 0 1,1 36,0 a 18,18 0 1,1 -36,0 z M 305 72 m -18, 0 a 18,18 0 1,1 36,0 a 18,18 0 1,1 -36,0 z " horiz-adv-x="622" unicode="$"/>
<glyph d="M 72 538 m -72, 0 a 72,72 0 1,1 144,0 a 72,72 0 1,1 -144,0 z M 72 305 m -18, 0 a 18,18 0 1,1 36,0 a 18,18 0 1,1 -36,0 z M 72 72 m -18, 0 a 18,18 0 1,1 36,0 a 18,18 0 1,1 -36,0 z M 305 538 m -72, 0 a 72,72 0 1,1 144,0 a 72,72 0 1,1 -144,0 z M 305 305 m -18, 0 a 18,18 0 1,1 36,0 a 18,18 0 1,1 -36,0 z M 305 72 m -18, 0 a 18,18 0 1,1 36,0 a 18,18 0 1,1 -36,0 z " horiz-adv-x="622" unicode="c"/>
<glyph d="M 72 538 m -18, 0 a 18,18 0 1,1 36,0 a 18,18 0 1,1 -36,0 z M 72 305 m -72, 0 a 72,72 0 1,1 144,0 a 72,72 0 1,1 -144,0 z M 72 72 m -18, 0 a 18,18 0 1,1 36,0 a 18,18 0 1,1 -36,0 z M 305 538 m -72, 0 a 72,72 0 1,1 144,0 a 72,72 0 1,1 -144,0 z M 305 305 m -18, 0 a 18,18 0 1,1 36,0 a 18,18 0 1,1 -36,0 z M 305 72 m -18, 0 a 18,18 0 1,1 36,0 a 18,18 0 1,1 -36,0 z " horiz-adv-x="622" unicode="i"/>
<glyph d="M 72 538 m -72, 0 a 72,72 0 1,1 144,0 a 72,72 0 1,1 -144,0 z M 72 305 m -72, 0 a 72,72 0 1,1 144,0 a 72,72 0 1,1 -144,0 z M 72 72 m -18, 0 a 18,18 0 1,1 36,0 a 18,18 0 1,1 -36,0 z M 305 538 m -72, 0 a 72,72 0 1,1 144,0 a 72,72 0 1,1 -144,0 z M 305 305 m -18, 0 a 18,18 0 1,1 36,0 a 18,18 0 1,1 -36,0 z M 305 72 m -18, 0 a 18,18 0 1,1 36,0 a 18,18 0 1,1 -36,0 z " horiz-adv-x="622" unicode="f"/>
<glyph d="M 72 538 m -18, 0 a 18,18 0 1,1 36,0 a 18,18 0 1,1 -36,0 z M 72 305 m -18, 0 a 18,18 0 1,1 36,0 a 18,18 0 1,1 -36,0 z M 72 72 m -72, 0 a 72,72 0 1,1 144,0 a 72,72 0 1,1 -144,0 z M 305 538 m -72, 0 a 72,72 0 1,1 144,0 a 72,72 0 1,1 -144,0 z M 305 305 m -18, 0 a 18,18 0 1,1 36,0 a 18,18 0 1,1 -36,0 z M 305 72 m -18, 0 a 18,18 0 1,1 36,0 a 18,18 0 1,1 -36,0 z " horiz-adv-x="622" unicode="^"/>
<glyph d="M 72 538 m -72, 0 a 72,72 0 1,1 144,0 a 72,72 0 1,1 -144,0 z M 72 305 m -18, 0 a 18,18 0 1,1 36,0 a 18,18 0 1,1 -36,0 z M 72 72 m -72, 0 a 72,72 0 1,1 144,0 a 72,72 0 1,1 -144,0 z M 305 538 m -72, 0 a 72,72 0 1,1 144,0 a 72,72 0 1,1 -144,0 z M 305 305 m -18, 0 a 18,18 0 1,1 36,0 a 18,18 0 1,1 -36,0 z M 305 72 m -18, 0 a 18,18 0 1,1 36,0 a 18,18 0 1,1 -36,0 z " horiz-adv-x="622" unicode="m"/>
<glyph d="M 72 538 m -18, 0 a 18,18 0 1,1 36,0 a 18,18 0 1,1 -36,0 z M 72 305 m -72, 0 a 72,72 0 1,1 144,0 a 72,72 0 1,1 -144,0 z M 72 72 m -72, 0 a 72,72 0 1,1 144,0 a 72,72 0 1,1 -144,0 z M 305 538 m -72, 0 a 72,72 0 1,1 144,0 a 72,72 0 1,1 -144,0 z M 305 305 m -18, 0 a 18,18 0 1,1 36,0 a 18,18 0 1,1 -36,0 z M 305 72 m -18, 0 a 18,18 0 1,1 36,0 a 18,18 0 1,1 -36,0 z " horiz-adv-x="622" unicode="s"/>
<glyph d="M 72 538 m -72, 0 a 72,72 0 1,1 144,0 a 72,72 0 1,1 -144,0 z M 72 305 m -72, 0 a 72,72 0 1,1 144,0 a 72,72 0 1,1 -144,0 z M 72 72 m -72, 0 a 72,72 0 1,1 144,0 a 72,72 0 1,1 -144,0 z M 305 538 m -72, 0 a 72,72 0 1,1 144,0 a 72,72 0 1,1 -144,0 z M 305 305 m -18, 0 a 18,18 0 1,1 36,0 a 18,18 0 1,1 -36,0 z M 305 72 m -18, 0 a 18,18 0 1,1 36,0 a 18,18 0 1,1 -36,0 z " horiz-adv-x="622" unicode="p"/>
<glyph d="M 72 538 m -18, 0 a 18,18 0 1,1 36,0 a 18,18 0 1,1 -36,0 z M 72 305 m -18, 0 a 18,18 0 1,1 36,0 a 18,18 0 1,1 -36,0 z M 72 72 m -18, 0 a 18,18 0 1,1 36,0 a 18,18 0 1,1 -36,0 z M 305 538 m -18, 0 a 18,18 0 1,1 36,0 a 18,18 0 1,1 -36,0 z M 305 305 m -72, 0 a 72,72 0 1,1 144,0 a 72,72 0 1,1 -144,0 z M 305 72 m -18, 0 a 18,18 0 1,1 36,0 a 18,18 0 1,1 -36,0 z " horiz-adv-x="622" unicode="~"/>
<glyph d="M 72 538 m -72, 0 a 72,72 0 1,1 144,0 a 72,72 0 1,1 -144,0 z M 72 305 m -18, 0 a 18,18 0 1,1 36,0 a 18,18 0 1,1 -36,0 z M 72 72 m -18, 0 a 18,18 0 1,1 36,0 a 18,18 0 1,1 -36,0 z M 305 538 m -18, 0 a 18,18 0 1,1 36,0 a 18,18 0 1,1 -36,0 z M 305 305 m -72, 0 a 72,72 0 1,1 144,0 a 72,72 0 1,1 -144,0 z M 305 72 m -18, 0 a 18,18 0 1,1 36,0 a 18,18 0 1,1 -36,0 z " horiz-adv-x="622" unicode="e"/>
<glyph d="M 72 538 m -18, 0 a 18,18 0 1,1 36,0 a 18,18 0 1,1 -36,0 z M 72 305 m -72, 0 a 72,72 0 1,1 144,0 a 72,72 0 1,1 -144,0 z M 72 72 m -18, 0 a 18,18 0 1,1 36,0 a 18,18 0 1,1 -36,0 z M 305 538 m -18, 0 a 18,18 0 1,1 36,0 a 18,18 0 1,1 -36,0 z M 305 305 m -72, 0 a 72,72 0 1,1 144,0 a 72,72 0 1,1 -144,0 z M 305 72 m -18, 0 a 18,18 0 1,1 36,0 a 18,18 0 1,1 -36,0 z " horiz-adv-x="622" unicode=":"/>
<glyph d="M 72 538 m -72, 0 a 72,72 0 1,1 144,0 a 72,72 0 1,1 -144,0 z M 72 305 m -72, 0 a 72,72 0 1,1 144,0 a 72,72 0 1,1 -144,0 z M 72 72 m -18, 0 a 18,18 0 1,1 36,0 a 18,18 0 1,1 -36,0 z M 305 538 m -18, 0 a 18,18 0 1,1 36,0 a 18,18 0 1,1 -36,0 z M 305 305 m -72, 0 a 72,72 0 1,1 144,0 a 72,72 0 1,1 -144,0 z M 305 72 m -18, 0 a 18,18 0 1,1 36,0 a 18,18 0 1,1 -36,0 z " horiz-adv-x="622" unicode="h"/>
<glyph d="M 72 538 m -18, 0 a 18,18 0 1,1 36,0 a 18,18 0 1,1 -36,0 z M 72 305 m -18, 0 a 18,18 0 1,1 36,0 a 18,18 0 1,1 -36,0 z M 72 72 m -72, 0 a 72,72 0 1,1 144,0 a 72,72 0 1,1 -144,0 z M 305 538 m -18, 0 a 18,18 0 1,1 36,0 a 18,18 0 1,1 -36,0 z M 305 305 m -72, 0 a 72,72 0 1,1 144,0 a 72,72 0 1,1 -144,0 z M 305 72 m -18, 0 a 18,18 0 1,1 36,0 a 18,18 0 1,1 -36,0 z " horiz-adv-x="622" unicode="*"/>
<glyph d="M 72 538 m -72, 0 a 72,72 0 1,1 144,0 a 72,72 0 1,1 -144,0 z M 72 305 m -18, 0 a 18,18 0 1,1 36,0 a 18,18 0 1,1 -36,0 z M 72 72 m -72, 0 a 72,72 0 1,1 144,0 a 72,72 0 1,1 -144,0 z M 305 538 m -18, 0 a 18,18 0 1,1 36,0 a 18,18 0 1,1 -36,0 z M 305 305 m -72, 0 a 72,72 0 1,1 144,0 a 72,72 0 1,1 -144,0 z M 305 72 m -18, 0 a 18,18 0 1,1 36,0 a 18,18 0 1,1 -36,0 z " horiz-adv-x="622" unicode="o"/>
<glyph d="M 72 538 m -18, 0 a 18,18 0 1,1 36,0 a 18,18 0 1,1 -36,0 z M 72 305 m -72, 0 a 72,72 0 1,1 144,0 a 72,72 0 1,1 -144,0 z M 72 72 m -72, 0 a 72,72 0 1,1 144,0 a 72,72 0 1,1 -144,0 z M 305 538 m -18, 0 a 18,18 0 1,1 36,0 a 18,18 0 1,1 -36,0 z M 305 305 m -72, 0 a 72,72 0 1,1 144,0 a 72,72 0 1,1 -144,0 z M 305 72 m -18, 0 a 18,18 0 1,1 36,0 a 18,18 0 1,1 -36,0 z " horiz-adv-x="622" unicode="!"/>
<glyph d="M 72 538 m -72, 0 a 72,72 0 1,1 144,0 a 72,72 0 1,1 -144,0 z M 72 305 m -72, 0 a 72,72 0 1,1 144,0 a 72,72 0 1,1 -144,0 z M 72 72 m -72, 0 a 72,72 0 1,1 144,0 a 72,72 0 1,1 -144,0 z M 305 538 m -18, 0 a 18,18 0 1,1 36,0 a 18,18 0 1,1 -36,0 z M 305 305 m -72, 0 a 72,72 0 1,1 144,0 a 72,72 0 1,1 -144,0 z M 305 72 m -18, 0 a 18,18 0 1,1 36,0 a 18,18 0 1,1 -36,0 z " horiz-adv-x="622" unicode="r"/>
<glyph d="M 72 538 m -18, 0 a 18,18 0 1,1 36,0 a 18,18 0 1,1 -36,0 z M 72 305 m -18, 0 a 18,18 0 1,1 36,0 a 18,18 0 1,1 -36,0 z M 72 72 m -18, 0 a 18,18 0 1,1 36,0 a 18,18 0 1,1 -36,0 z M 305 538 m -72, 0 a 72,72 0 1,1 144,0 a 72,72 0 1,1 -144,0 z M 305 305 m -72, 0 a 72,72 0 1,1 144,0 a 72,72 0 1,1 -144,0 z M 305 72 m -18, 0 a 18,18 0 1,1 36,0 a 18,18 0 1,1 -36,0 z " horiz-adv-x="622" unicode="&gt;"/>
<glyph d="M 72 538 m -72, 0 a 72,72 0 1,1 144,0 a 72,72 0 1,1 -144,0 z M 72 305 m -18, 0 a 18,18 0 1,1 36,0 a 18,18 0 1,1 -36,0 z M 72 72 m -18, 0 a 18,18 0 1,1 36,0 a 18,18 0 1,1 -36,0 z M 305 538 m -72, 0 a 72,72 0 1,1 144,0 a 72,72 0 1,1 -144,0 z M 305 305 m -72, 0 a 72,72 0 1,1 144,0 a 72,72 0 1,1 -144,0 z M 305 72 m -18, 0 a 18,18 0 1,1 36,0 a 18,18 0 1,1 -36,0 z " horiz-adv-x="622" unicode="d"/>
<glyph d="M 72 538 m -18, 0 a 18,18 0 1,1 36,0 a 18,18 0 1,1 -36,0 z M 72 305 m -72, 0 a 72,72 0 1,1 144,0 a 72,72 0 1,1 -144,0 z M 72 72 m -18, 0 a 18,18 0 1,1 36,0 a 18,18 0 1,1 -36,0 z M 305 538 m -72, 0 a 72,72 0 1,1 144,0 a 72,72 0 1,1 -144,0 z M 305 305 m -72, 0 a 72,72 0 1,1 144,0 a 72,72 0 1,1 -144,0 z M 305 72 m -18, 0 a 18,18 0 1,1 36,0 a 18,18 0 1,1 -36,0 z " horiz-adv-x="622" unicode="j"/>
<glyph d="M 72 538 m -72, 0 a 72,72 0 1,1 144,0 a 72,72 0 1,1 -144,0 z M 72 305 m -72, 0 a 72,72 0 1,1 144,0 a 72,72 0 1,1 -144,0 z M 72 72 m -18, 0 a 18,18 0 1,1 36,0 a 18,18 0 1,1 -36,0 z M 305 538 m -72, 0 a 72,72 0 1,1 144,0 a 72,72 0 1,1 -144,0 z M 305 305 m -72, 0 a 72,72 0 1,1 144,0 a 72,72 0 1,1 -144,0 z M 305 72 m -18, 0 a 18,18 0 1,1 36,0 a 18,18 0 1,1 -36,0 z " horiz-adv-x="622" unicode="g"/>
<glyph d="M 72 538 m -18, 0 a 18,18 0 1,1 36,0 a 18,18 0 1,1 -36,0 z M 72 305 m -18, 0 a 18,18 0 1,1 36,0 a 18,18 0 1,1 -36,0 z M 72 72 m -72, 0 a 72,72 0 1,1 144,0 a 72,72 0 1,1 -144,0 z M 305 538 m -72, 0 a 72,72 0 1,1 144,0 a 72,72 0 1,1 -144,0 z M 305 305 m -72, 0 a 72,72 0 1,1 144,0 a 72,72 0 1,1 -144,0 z M 305 72 m -18, 0 a 18,18 0 1,1 36,0 a 18,18 0 1,1 -36,0 z " horiz-adv-x="622" unicode="@"/>
<glyph d="M 72 538 m -72, 0 a 72,72 0 1,1 144,0 a 72,72 0 1,1 -144,0 z M 72 305 m -18, 0 a 18,18 0 1,1 36,0 a 18,18 0 1,1 -36,0 z M 72 72 m -72, 0 a 72,72 0 1,1 144,0 a 72,72 0 1,1 -144,0 z M 305 538 m -72, 0 a 72,72 0 1,1 144,0 a 72,72 0 1,1 -144,0 z M 305 305 m -72, 0 a 72,72 0 1,1 144,0 a 72,72 0 1,1 -144,0 z M 305 72 m -18, 0 a 18,18 0 1,1 36,0 a 18,18 0 1,1 -36,0 z " horiz-adv-x="622" unicode="n"/>
<glyph d="M 72 538 m -18, 0 a 18,18 0 1,1 36,0 a 18,18 0 1,1 -36,0 z M 72 305 m -72, 0 a 72,72 0 1,1 144,0 a 72,72 0 1,1 -144,0 z M 72 72 m -72, 0 a 72,72 0 1,1 144,0 a 72,72 0 1,1 -144,0 z M 305 538 m -72, 0 a 72,72 0 1,1 144,0 a 72,72 0 1,1 -144,0 z M 305 305 m -72, 0 a 72,72 0 1,1 144,0 a 72,72 0 1,1 -144,0 z M 305 72 m -18, 0 a 18,18 0 1,1 36,0 a 18,18 0 1,1 -36,0 z " horiz-adv-x="622" unicode="t"/>
<glyph d="M 72 538 m -72, 0 a 72,72 0 1,1 144,0 a 72,72 0 1,1 -144,0 z M 72 305 m -72, 0 a 72,72 0 1,1 144,0 a 72,72 0 1,1 -144,0 z M 72 72 m -72, 0 a 72,72 0 1,1 144,0 a 72,72 0 1,1 -144,0 z M 305 538 m -72, 0 a 72,72 0 1,1 144,0 a 72,72 0 1,1 -144,0 z M 305 305 m -72, 0 a 72,72 0 1,1 144,0 a 72,72 0 1,1 -144,0 z M 305 72 m -18, 0 a 18,18 0 1,1 36,0 a 18,18 0 1,1 -36,0 z " horiz-adv-x="622" unicode="q"/>
<glyph d="M 72 538 m -18, 0 a 18,18 0 1,1 36,0 a 18,18 0 1,1 -36,0 z M 72 305 m -18, 0 a 18,18 0 1,1 36,0 a 18,18 0 1,1 -36,0 z M 72 72 m -18, 0 a 18,18 0 1,1 36,0 a 18,18 0 1,1 -36,0 z M 305 538 m -18, 0 a 18,18 0 1,1 36,0 a 18,18 0 1,1 -36,0 z M 305 305 m -18, 0 a 18,18 0 1,1 36,0 a 18,18 0 1,1 -36,0 z M 305 72 m -72, 0 a 72,72 0 1,1 144,0 a 72,72 0 1,1 -144,0 z " horiz-adv-x="622" unicode="'"/>
<glyph d="M 72 538 m -72, 0 a 72,72 0 1,1 144,0 a 72,72 0 1,1 -144,0 z M 72 305 m -18, 0 a 18,18 0 1,1 36,0 a 18,18 0 1,1 -36,0 z M 72 72 m -18, 0 a 18,18 0 1,1 36,0 a 18,18 0 1,1 -36,0 z M 305 538 m -18, 0 a 18,18 0 1,1 36,0 a 18,18 0 1,1 -36,0 z M 305 305 m -18, 0 a 18,18 0 1,1 36,0 a 18,18 0 1,1 -36,0 z M 305 72 m -72, 0 a 72,72 0 1,1 144,0 a 72,72 0 1,1 -144,0 z " horiz-adv-x="622" unicode="â"/>
<glyph d="M 72 538 m -18, 0 a 18,18 0 1,1 36,0 a 18,18 0 1,1 -36,0 z M 72 305 m -72, 0 a 72,72 0 1,1 144,0 a 72,72 0 1,1 -144,0 z M 72 72 m -18, 0 a 18,18 0 1,1 36,0 a 18,18 0 1,1 -36,0 z M 305 538 m -18, 0 a 18,18 0 1,1 36,0 a 18,18 0 1,1 -36,0 z M 305 305 m -18, 0 a 18,18 0 1,1 36,0 a 18,18 0 1,1 -36,0 z M 305 72 m -72, 0 a 72,72 0 1,1 144,0 a 72,72 0 1,1 -144,0 z " horiz-adv-x="622" unicode="?"/>
<glyph d="M 72 538 m -72, 0 a 72,72 0 1,1 144,0 a 72,72 0 1,1 -144,0 z M 72 305 m -72, 0 a 72,72 0 1,1 144,0 a 72,72 0 1,1 -144,0 z M 72 72 m -18, 0 a 18,18 0 1,1 36,0 a 18,18 0 1,1 -36,0 z M 305 538 m -18, 0 a 18,18 0 1,1 36,0 a 18,18 0 1,1 -36,0 z M 305 305 m -18, 0 a 18,18 0 1,1 36,0 a 18,18 0 1,1 -36,0 z M 305 72 m -72, 0 a 72,72 0 1,1 144,0 a 72,72 0 1,1 -144,0 z " horiz-adv-x="622" unicode="ê"/>
<glyph d="M 72 538 m -18, 0 a 18,18 0 1,1 36,0 a 18,18 0 1,1 -36,0 z M 72 305 m -18, 0 a 18,18 0 1,1 36,0 a 18,18 0 1,1 -36,0 z M 72 72 m -72, 0 a 72,72 0 1,1 144,0 a 72,72 0 1,1 -144,0 z M 305 538 m -18, 0 a 18,18 0 1,1 36,0 a 18,18 0 1,1 -36,0 z M 305 305 m -18, 0 a 18,18 0 1,1 36,0 a 18,18 0 1,1 -36,0 z M 305 72 m -72, 0 a 72,72 0 1,1 144,0 a 72,72 0 1,1 -144,0 z " horiz-adv-x="622" unicode="-"/>
<glyph d="M 72 538 m -72, 0 a 72,72 0 1,1 144,0 a 72,72 0 1,1 -144,0 z M 72 305 m -18, 0 a 18,18 0 1,1 36,0 a 18,18 0 1,1 -36,0 z M 72 72 m -72, 0 a 72,72 0 1,1 144,0 a 72,72 0 1,1 -144,0 z M 305 538 m -18, 0 a 18,18 0 1,1 36,0 a 18,18 0 1,1 -36,0 z M 305 305 m -18, 0 a 18,18 0 1,1 36,0 a 18,18 0 1,1 -36,0 z M 305 72 m -72, 0 a 72,72 0 1,1 144,0 a 72,72 0 1,1 -144,0 z " horiz-adv-x="622" unicode="u"/>
<glyph d="M 72 538 m -18, 0 a 18,18 0 1,1 36,0 a 18,18 0 1,1 -36,0 z M 72 305 m -72, 0 a 72,72 0 1,1 144,0 a 72,72 0 1,1 -144,0 z M 72 72 m -72, 0 a 72,72 0 1,1 144,0 a 72,72 0 1,1 -144,0 z M 305 538 m -18, 0 a 18,18 0 1,1 36,0 a 18,18 0 1,1 -36,0 z M 305 305 m -18, 0 a 18,18 0 1,1 36,0 a 18,18 0 1,1 -36,0 z M 305 72 m -72, 0 a 72,72 0 1,1 144,0 a 72,72 0 1,1 -144,0 z " horiz-adv-x="622" unicode="("/>
<glyph d="M 72 538 m -72, 0 a 72,72 0 1,1 144,0 a 72,72 0 1,1 -144,0 z M 72 305 m -72, 0 a 72,72 0 1,1 144,0 a 72,72 0 1,1 -144,0 z M 72 72 m -72, 0 a 72,72 0 1,1 144,0 a 72,72 0 1,1 -144,0 z M 305 538 m -18, 0 a 18,18 0 1,1 36,0 a 18,18 0 1,1 -36,0 z M 305 305 m -18, 0 a 18,18 0 1,1 36,0 a 18,18 0 1,1 -36,0 z M 305 72 m -72, 0 a 72,72 0 1,1 144,0 a 72,72 0 1,1 -144,0 z " horiz-adv-x="622" unicode="v"/>
<glyph d="M 72 538 m -18, 0 a 18,18 0 1,1 36,0 a 18,18 0 1,1 -36,0 z M 72 305 m -18, 0 a 18,18 0 1,1 36,0 a 18,18 0 1,1 -36,0 z M 72 72 m -18, 0 a 18,18 0 1,1 36,0 a 18,18 0 1,1 -36,0 z M 305 538 m -72, 0 a 72,72 0 1,1 144,0 a 72,72 0 1,1 -144,0 z M 305 305 m -18, 0 a 18,18 0 1,1 36,0 a 18,18 0 1,1 -36,0 z M 305 72 m -72, 0 a 72,72 0 1,1 144,0 a 72,72 0 1,1 -144,0 z " horiz-adv-x="622" unicode="¨"/>
<glyph d="M 72 538 m -72, 0 a 72,72 0 1,1 144,0 a 72,72 0 1,1 -144,0 z M 72 305 m -18, 0 a 18,18 0 1,1 36,0 a 18,18 0 1,1 -36,0 z M 72 72 m -18, 0 a 18,18 0 1,1 36,0 a 18,18 0 1,1 -36,0 z M 305 538 m -72, 0 a 72,72 0 1,1 144,0 a 72,72 0 1,1 -144,0 z M 305 305 m -18, 0 a 18,18 0 1,1 36,0 a 18,18 0 1,1 -36,0 z M 305 72 m -72, 0 a 72,72 0 1,1 144,0 a 72,72 0 1,1 -144,0 z " horiz-adv-x="622" unicode="î"/>
<glyph d="M 72 538 m -18, 0 a 18,18 0 1,1 36,0 a 18,18 0 1,1 -36,0 z M 72 305 m -72, 0 a 72,72 0 1,1 144,0 a 72,72 0 1,1 -144,0 z M 72 72 m -18, 0 a 18,18 0 1,1 36,0 a 18,18 0 1,1 -36,0 z M 305 538 m -72, 0 a 72,72 0 1,1 144,0 a 72,72 0 1,1 -144,0 z M 305 305 m -18, 0 a 18,18 0 1,1 36,0 a 18,18 0 1,1 -36,0 z M 305 72 m -72, 0 a 72,72 0 1,1 144,0 a 72,72 0 1,1 -144,0 z " horiz-adv-x="622" unicode="9"/>
<glyph d="M 72 538 m -72, 0 a 72,72 0 1,1 144,0 a 72,72 0 1,1 -144,0 z M 72 305 m -72, 0 a 72,72 0 1,1 144,0 a 72,72 0 1,1 -144,0 z M 72 72 m -18, 0 a 18,18 0 1,1 36,0 a 18,18 0 1,1 -36,0 z M 305 538 m -72, 0 a 72,72 0 1,1 144,0 a 72,72 0 1,1 -144,0 z M 305 305 m -18, 0 a 18,18 0 1,1 36,0 a 18,18 0 1,1 -36,0 z M 305 72 m -72, 0 a 72,72 0 1,1 144,0 a 72,72 0 1,1 -144,0 z " horiz-adv-x="622" unicode="ë"/>
<glyph d="M 72 538 m -18, 0 a 18,18 0 1,1 36,0 a 18,18 0 1,1 -36,0 z M 72 305 m -18, 0 a 18,18 0 1,1 36,0 a 18,18 0 1,1 -36,0 z M 72 72 m -72, 0 a 72,72 0 1,1 144,0 a 72,72 0 1,1 -144,0 z M 305 538 m -72, 0 a 72,72 0 1,1 144,0 a 72,72 0 1,1 -144,0 z M 305 305 m -18, 0 a 18,18 0 1,1 36,0 a 18,18 0 1,1 -36,0 z M 305 72 m -72, 0 a 72,72 0 1,1 144,0 a 72,72 0 1,1 -144,0 z " horiz-adv-x="622" unicode="#"/>
<glyph d="M 72 538 m -72, 0 a 72,72 0 1,1 144,0 a 72,72 0 1,1 -144,0 z M 72 305 m -18, 0 a 18,18 0 1,1 36,0 a 18,18 0 1,1 -36,0 z M 72 72 m -72, 0 a 72,72 0 1,1 144,0 a 72,72 0 1,1 -144,0 z M 305 538 m -72, 0 a 72,72 0 1,1 144,0 a 72,72 0 1,1 -144,0 z M 305 305 m -18, 0 a 18,18 0 1,1 36,0 a 18,18 0 1,1 -36,0 z M 305 72 m -72, 0 a 72,72 0 1,1 144,0 a 72,72 0 1,1 -144,0 z " horiz-adv-x="622" unicode="x"/>
<glyph d="M 72 538 m -18, 0 a 18,18 0 1,1 36,0 a 18,18 0 1,1 -36,0 z M 72 305 m -72, 0 a 72,72 0 1,1 144,0 a 72,72 0 1,1 -144,0 z M 72 72 m -72, 0 a 72,72 0 1,1 144,0 a 72,72 0 1,1 -144,0 z M 305 538 m -72, 0 a 72,72 0 1,1 144,0 a 72,72 0 1,1 -144,0 z M 305 305 m -18, 0 a 18,18 0 1,1 36,0 a 18,18 0 1,1 -36,0 z M 305 72 m -72, 0 a 72,72 0 1,1 144,0 a 72,72 0 1,1 -144,0 z " horiz-adv-x="622" unicode="è"/>
<glyph d="M 72 538 m -72, 0 a 72,72 0 1,1 144,0 a 72,72 0 1,1 -144,0 z M 72 305 m -72, 0 a 72,72 0 1,1 144,0 a 72,72 0 1,1 -144,0 z M 72 72 m -72, 0 a 72,72 0 1,1 144,0 a 72,72 0 1,1 -144,0 z M 305 538 m -72, 0 a 72,72 0 1,1 144,0 a 72,72 0 1,1 -144,0 z M 305 305 m -18, 0 a 18,18 0 1,1 36,0 a 18,18 0 1,1 -36,0 z M 305 72 m -72, 0 a 72,72 0 1,1 144,0 a 72,72 0 1,1 -144,0 z " horiz-adv-x="622" unicode="ç"/>
<glyph d="M 72 538 m -18, 0 a 18,18 0 1,1 36,0 a 18,18 0 1,1 -36,0 z M 72 305 m -18, 0 a 18,18 0 1,1 36,0 a 18,18 0 1,1 -36,0 z M 72 72 m -18, 0 a 18,18 0 1,1 36,0 a 18,18 0 1,1 -36,0 z M 305 538 m -18, 0 a 18,18 0 1,1 36,0 a 18,18 0 1,1 -36,0 z M 305 305 m -72, 0 a 72,72 0 1,1 144,0 a 72,72 0 1,1 -144,0 z M 305 72 m -72, 0 a 72,72 0 1,1 144,0 a 72,72 0 1,1 -144,0 z " horiz-adv-x="622" unicode="&lt;"/>
<glyph d="M 72 538 m -72, 0 a 72,72 0 1,1 144,0 a 72,72 0 1,1 -144,0 z M 72 305 m -18, 0 a 18,18 0 1,1 36,0 a 18,18 0 1,1 -36,0 z M 72 72 m -18, 0 a 18,18 0 1,1 36,0 a 18,18 0 1,1 -36,0 z M 305 538 m -18, 0 a 18,18 0 1,1 36,0 a 18,18 0 1,1 -36,0 z M 305 305 m -72, 0 a 72,72 0 1,1 144,0 a 72,72 0 1,1 -144,0 z M 305 72 m -72, 0 a 72,72 0 1,1 144,0 a 72,72 0 1,1 -144,0 z " horiz-adv-x="622" unicode="û"/>
<glyph d="M 72 538 m -18, 0 a 18,18 0 1,1 36,0 a 18,18 0 1,1 -36,0 z M 72 305 m -72, 0 a 72,72 0 1,1 144,0 a 72,72 0 1,1 -144,0 z M 72 72 m -18, 0 a 18,18 0 1,1 36,0 a 18,18 0 1,1 -36,0 z M 305 538 m -18, 0 a 18,18 0 1,1 36,0 a 18,18 0 1,1 -36,0 z M 305 305 m -72, 0 a 72,72 0 1,1 144,0 a 72,72 0 1,1 -144,0 z M 305 72 m -72, 0 a 72,72 0 1,1 144,0 a 72,72 0 1,1 -144,0 z " horiz-adv-x="622" unicode="/"/>
<glyph d="M 72 538 m -72, 0 a 72,72 0 1,1 144,0 a 72,72 0 1,1 -144,0 z M 72 305 m -72, 0 a 72,72 0 1,1 144,0 a 72,72 0 1,1 -144,0 z M 72 72 m -18, 0 a 18,18 0 1,1 36,0 a 18,18 0 1,1 -36,0 z M 305 538 m -18, 0 a 18,18 0 1,1 36,0 a 18,18 0 1,1 -36,0 z M 305 305 m -72, 0 a 72,72 0 1,1 144,0 a 72,72 0 1,1 -144,0 z M 305 72 m -72, 0 a 72,72 0 1,1 144,0 a 72,72 0 1,1 -144,0 z " horiz-adv-x="622" unicode="ü"/>
<glyph d="M 72 538 m -18, 0 a 18,18 0 1,1 36,0 a 18,18 0 1,1 -36,0 z M 72 305 m -18, 0 a 18,18 0 1,1 36,0 a 18,18 0 1,1 -36,0 z M 72 72 m -72, 0 a 72,72 0 1,1 144,0 a 72,72 0 1,1 -144,0 z M 305 538 m -18, 0 a 18,18 0 1,1 36,0 a 18,18 0 1,1 -36,0 z M 305 305 m -72, 0 a 72,72 0 1,1 144,0 a 72,72 0 1,1 -144,0 z M 305 72 m -72, 0 a 72,72 0 1,1 144,0 a 72,72 0 1,1 -144,0 z " horiz-adv-x="622" unicode=")"/>
<glyph d="M 72 538 m -72, 0 a 72,72 0 1,1 144,0 a 72,72 0 1,1 -144,0 z M 72 305 m -18, 0 a 18,18 0 1,1 36,0 a 18,18 0 1,1 -36,0 z M 72 72 m -72, 0 a 72,72 0 1,1 144,0 a 72,72 0 1,1 -144,0 z M 305 538 m -18, 0 a 18,18 0 1,1 36,0 a 18,18 0 1,1 -36,0 z M 305 305 m -72, 0 a 72,72 0 1,1 144,0 a 72,72 0 1,1 -144,0 z M 305 72 m -72, 0 a 72,72 0 1,1 144,0 a 72,72 0 1,1 -144,0 z " horiz-adv-x="622" unicode="z"/>
<glyph d="M 72 538 m -18, 0 a 18,18 0 1,1 36,0 a 18,18 0 1,1 -36,0 z M 72 305 m -72, 0 a 72,72 0 1,1 144,0 a 72,72 0 1,1 -144,0 z M 72 72 m -72, 0 a 72,72 0 1,1 144,0 a 72,72 0 1,1 -144,0 z M 305 538 m -18, 0 a 18,18 0 1,1 36,0 a 18,18 0 1,1 -36,0 z M 305 305 m -72, 0 a 72,72 0 1,1 144,0 a 72,72 0 1,1 -144,0 z M 305 72 m -72, 0 a 72,72 0 1,1 144,0 a 72,72 0 1,1 -144,0 z " horiz-adv-x="622" unicode="&quot;"/>
<glyph d="M 72 538 m -72, 0 a 72,72 0 1,1 144,0 a 72,72 0 1,1 -144,0 z M 72 305 m -72, 0 a 72,72 0 1,1 144,0 a 72,72 0 1,1 -144,0 z M 72 72 m -72, 0 a 72,72 0 1,1 144,0 a 72,72 0 1,1 -144,0 z M 305 538 m -18, 0 a 18,18 0 1,1 36,0 a 18,18 0 1,1 -36,0 z M 305 305 m -72, 0 a 72,72 0 1,1 144,0 a 72,72 0 1,1 -144,0 z M 305 72 m -72, 0 a 72,72 0 1,1 144,0 a 72,72 0 1,1 -144,0 z " horiz-adv-x="622" unicode="à"/>
<glyph d="M 72 538 m -18, 0 a 18,18 0 1,1 36,0 a 18,18 0 1,1 -36,0 z M 72 305 m -18, 0 a 18,18 0 1,1 36,0 a 18,18 0 1,1 -36,0 z M 72 72 m -18, 0 a 18,18 0 1,1 36,0 a 18,18 0 1,1 -36,0 z M 305 538 m -72, 0 a 72,72 0 1,1 144,0 a 72,72 0 1,1 -144,0 z M 305 305 m -72, 0 a 72,72 0 1,1 144,0 a 72,72 0 1,1 -144,0 z M 305 72 m -72, 0 a 72,72 0 1,1 144,0 a 72,72 0 1,1 -144,0 z " horiz-adv-x="622" unicode="_"/>
<glyph d="M 72 538 m -72, 0 a 72,72 0 1,1 144,0 a 72,72 0 1,1 -144,0 z M 72 305 m -18, 0 a 18,18 0 1,1 36,0 a 18,18 0 1,1 -36,0 z M 72 72 m -18, 0 a 18,18 0 1,1 36,0 a 18,18 0 1,1 -36,0 z M 305 538 m -72, 0 a 72,72 0 1,1 144,0 a 72,72 0 1,1 -144,0 z M 305 305 m -72, 0 a 72,72 0 1,1 144,0 a 72,72 0 1,1 -144,0 z M 305 72 m -72, 0 a 72,72 0 1,1 144,0 a 72,72 0 1,1 -144,0 z " horiz-adv-x="622" unicode="ô"/>
<glyph d="M 72 538 m -18, 0 a 18,18 0 1,1 36,0 a 18,18 0 1,1 -36,0 z M 72 305 m -72, 0 a 72,72 0 1,1 144,0 a 72,72 0 1,1 -144,0 z M 72 72 m -18, 0 a 18,18 0 1,1 36,0 a 18,18 0 1,1 -36,0 z M 305 538 m -72, 0 a 72,72 0 1,1 144,0 a 72,72 0 1,1 -144,0 z M 305 305 m -72, 0 a 72,72 0 1,1 144,0 a 72,72 0 1,1 -144,0 z M 305 72 m -72, 0 a 72,72 0 1,1 144,0 a 72,72 0 1,1 -144,0 z " horiz-adv-x="622" unicode="w"/>
<glyph d="M 72 538 m -72, 0 a 72,72 0 1,1 144,0 a 72,72 0 1,1 -144,0 z M 72 305 m -72, 0 a 72,72 0 1,1 144,0 a 72,72 0 1,1 -144,0 z M 72 72 m -18, 0 a 18,18 0 1,1 36,0 a 18,18 0 1,1 -36,0 z M 305 538 m -72, 0 a 72,72 0 1,1 144,0 a 72,72 0 1,1 -144,0 z M 305 305 m -72, 0 a 72,72 0 1,1 144,0 a 72,72 0 1,1 -144,0 z M 305 72 m -72, 0 a 72,72 0 1,1 144,0 a 72,72 0 1,1 -144,0 z " horiz-adv-x="622" unicode="ï"/>
<glyph d="M 72 538 m -18, 0 a 18,18 0 1,1 36,0 a 18,18 0 1,1 -36,0 z M 72 305 m -18, 0 a 18,18 0 1,1 36,0 a 18,18 0 1,1 -36,0 z M 72 72 m -72, 0 a 72,72 0 1,1 144,0 a 72,72 0 1,1 -144,0 z M 305 538 m -72, 0 a 72,72 0 1,1 144,0 a 72,72 0 1,1 -144,0 z M 305 305 m -72, 0 a 72,72 0 1,1 144,0 a 72,72 0 1,1 -144,0 z M 305 72 m -72, 0 a 72,72 0 1,1 144,0 a 72,72 0 1,1 -144,0 z " horiz-adv-x="622" unicode="0"/>
<glyph d="M 72 538 m -72, 0 a 72,72 0 1,1 144,0 a 72,72 0 1,1 -144,0 z M 72 305 m -18, 0 a 18,18 0 1,1 36,0 a 18,18 0 1,1 -36,0 z M 72 72 m -72, 0 a 72,72 0 1,1 144,0 a 72,72 0 1,1 -144,0 z M 305 538 m -72, 0 a 72,72 0 1,1 144,0 a 72,72 0 1,1 -144,0 z M 305 305 m -72, 0 a 72,72 0 1,1 144,0 a 72,72 0 1,1 -144,0 z M 305 72 m -72, 0 a 72,72 0 1,1 144,0 a 72,72 0 1,1 -144,0 z " horiz-adv-x="622" unicode="y"/>
<glyph d="M 72 538 m -18, 0 a 18,18 0 1,1 36,0 a 18,18 0 1,1 -36,0 z M 72 305 m -72, 0 a 72,72 0 1,1 144,0 a 72,72 0 1,1 -144,0 z M 72 72 m -72, 0 a 72,72 0 1,1 144,0 a 72,72 0 1,1 -144,0 z M 305 538 m -72, 0 a 72,72 0 1,1 144,0 a 72,72 0 1,1 -144,0 z M 305 305 m -72, 0 a 72,72 0 1,1 144,0 a 72,72 0 1,1 -144,0 z M 305 72 m -72, 0 a 72,72 0 1,1 144,0 a 72,72 0 1,1 -144,0 z " horiz-adv-x="622" unicode="ù"/>
<glyph d="M 72 538 m -72, 0 a 72,72 0 1,1 144,0 a 72,72 0 1,1 -144,0 z M 72 305 m -72, 0 a 72,72 0 1,1 144,0 a 72,72 0 1,1 -144,0 z M 72 72 m -72, 0 a 72,72 0 1,1 144,0 a 72,72 0 1,1 -144,0 z M 305 538 m -72, 0 a 72,72 0 1,1 144,0 a 72,72 0 1,1 -144,0 z M 305 305 m -72, 0 a 72,72 0 1,1 144,0 a 72,72 0 1,1 -144,0 z M 305 72 m -72, 0 a 72,72 0 1,1 144,0 a 72,72 0 1,1 -144,0 z " horiz-adv-x="622" unicode="é"/>
</font>
</defs>
</svg>
